<svg cache-id="a1b1b9b129524ac3bd661e373f834c1b" id="ezTRFevKQZ61" xmlns="http://www.w3.org/2000/svg" xmlns:xlink="http://www.w3.org/1999/xlink" viewBox="0 0 291.65 338.12" shape-rendering="geometricPrecision" text-rendering="geometricPrecision">
<!-- <rect width="840.304392" height="507.430189" rx="0" ry="0" transform="translate(-274.327196-72.302132)" stroke-width="0"/> -->
<path id="ezTRFevKQZ63" d="M267.2,108.01v-18.99l13.73,6.83v-28.42L145.82,0L10.71,67.43v28.42l14.76-7.38v19.05L0,120.23v145.69l25.59,12.7v-28.48h-.12v-114.12L145.82,75.91l120.35,60.11v114.12h-.12v28.48l25.59-12.7v-145.69l-24.45-12.22ZM50.95,94.83v-19.05l94.88-47.35l95.9,47.84v19.05l-95.9-47.84L50.95,94.83Z" transform="matrix(.846442-.532481 0.532481 0.846442 136.782465-310.271243)" fill="#fff"/>
<path id="ezTRFevKQZ64" d="M100.68,126.21v189.53L50.94,291.13v-140.06l49.74-24.86Z" transform="translate(2.706294 242.213345)" fill="#fa0"/>
<path id="ezTRFevKQZ65" d="M174.32,117.93v206.1l-28.5,14.09-26.99-13.36v-207.56l26.99-13.49l28.5,14.21Z" transform="translate(-2.809713-351.818263)" fill="#fa0"/>
<path id="ezTRFevKQZ66" d="M241.73,151.61v139.03l-49.25,24.37v-188.01l49.25,24.61Z" transform="translate(1.353147 211.12)" fill="#fa0"/>
</svg>
