<svg id="eG41n9Ku8fz1" xmlns="http://www.w3.org/2000/svg" xmlns:xlink="http://www.w3.org/1999/xlink" viewBox="0 0 181.79 181.79" shape-rendering="geometricPrecision" text-rendering="geometricPrecision"><g><polygon id="eG41n9Ku8fz3" points="50.7,62.89 63.59,69.38 81.78,78.53 99.97,69.38 99.97,38.08 50.7,62.89" transform="matrix(-.481074 0.87668-.87668-.481074 202.886549-37.995644)" fill="#fcc000"/><path id="eG41n9Ku8fz4" d="M81.78,111.29v-32.76l18.19-9.15v32.72l-18.19,9.19Z" transform="matrix(-.54529-.838248 0.838248-.54529-35.264894 188.324501)" fill="#004c84"/><path id="eG41n9Ku8fz5" d="M99.97,102.1v-32.72l18.23,9.15l45.45,22.84v32.76L118.2,111.29L99.97,102.1Z" transform="matrix(.642788 0.766044-.766044 0.642788 232.801764-129.639868)" fill="#00a3c9"/><polygon id="eG41n9Ku8fz6" points="118.2,111.29 99.97,102.1 81.78,111.29 81.78,142.59 131.08,117.77 118.2,111.29" transform="matrix(-.795078 0.606507-.606507-.795078 355.146352 155.068203)" fill="#fcc000"/><polygon id="eG41n9Ku8fz7" points="18.17,46.5 50.7,62.89 99.97,38.08 99.97,5.31 18.17,46.5" transform="matrix(.642788 0.766044-.766044 0.642788-56.680712-117.006377)" fill="#004c84"/><path id="eG41n9Ku8fz8" d="M81.78,175.31v-32.72l81.86-41.22v32.76L81.78,175.31Z" transform="matrix(.642788 0.766044-.766044 0.642788 223.421188 38.169001)" fill="#004c84"/><path id="eG41n9Ku8fz9" d="M81.78,78.53v32.76L63.59,102.1L18.14,79.26v-32.76L63.59,69.39l18.19,9.15Z" transform="matrix(.939693 0.34202-.34202 0.939693-65.615528 70.536776)" fill="#0067c4"/></g>
</svg>
