<svg id="ehwMaf28xFz1" xmlns="http://www.w3.org/2000/svg" xmlns:xlink="http://www.w3.org/1999/xlink" viewBox="0 0 108.1 126.38" shape-rendering="geometricPrecision" text-rendering="geometricPrecision"><g id="ehwMaf28xFz2" transform="translate(0-78.760002)"><polygon points="60.85,0 60.85,47.61 47.34,54.42 33.82,47.61 0.09,30.62 33.82,13.62 47.34,6.81 60.85,0" fill="#fcc000" stroke-width="0"/><polygon points="0,55.02 0,30.68 60.85,0 60.85,24.34 0,55.02" fill="#004c84" stroke-width="0"/><polygon points="47.34,54.42 47.34,78.76 33.82,71.95 0.09,54.96 0.09,30.62 33.82,47.61 47.34,54.42" fill="#0067c4" stroke-width="0"/><polygon points="60.85,47.61 60.85,71.95 47.34,78.76 47.34,54.42 60.85,47.61" fill="#00a3c9" stroke-width="0"/></g><g id="ehwMaf28xFz7" transform="translate(0 78.769999)"><polygon points="47.34,126.38 47.34,78.76 60.85,71.95 74.37,78.76 108.1,95.76 74.37,112.76 60.85,119.57 47.34,126.38" fill="#fcc000" stroke-width="0"/><polygon points="60.85,71.95 60.85,47.61 74.37,54.42 108.1,71.42 108.1,95.76 74.37,78.76 60.85,71.95" fill="#00a3c9" stroke-width="0"/><polygon points="47.34,78.76 47.34,54.42 60.85,47.61 60.85,71.95 47.34,78.76" fill="#004c84" stroke-width="0"/><polygon points="47.34,126.38 47.34,102.04 108.1,71.41 108.1,95.75 47.34,126.38" fill="#004c84" stroke-width="0"/></g></svg>
